<svg xmlns="http://www.w3.org/2000/svg" width="430" height="430" style="width:100%;height:100%;transform:translate3d(0,0,0);content-visibility:visible" viewBox="0 0 430 430"><defs><clipPath id="c"><path d="M0 0h430v430H0z"/></clipPath><clipPath id="i"><path d="M0 0h430v430H0z"/></clipPath><clipPath id="h"><path d="M0 0h430v430H0z"/></clipPath><clipPath id="g"><path d="M0 0h430v430H0z"/></clipPath><clipPath id="d"><path d="M0 0h430v430H0z"/></clipPath><mask id="f" mask-type="alpha"><use xmlns:ns1="http://www.w3.org/1999/xlink" ns1:href="#a"/></mask><mask id="e" mask-type="alpha"><use xmlns:ns2="http://www.w3.org/1999/xlink" ns2:href="#b"/></mask><g id="a" style="display:none"><path class="primary"/><path fill-opacity="0" class="primary"/></g><g id="b" style="display:none"><path class="primary"/><path fill-opacity="0" class="primary"/></g></defs><g clip-path="url(#c)"><g clip-path="url(#d)" style="display:none"><g style="display:none"><path class="tertiary"/><g style="mix-blend-mode:multiply"><path class="tertiary"/><path class="tertiary"/><path class="tertiary"/><path class="tertiary"/></g></g><g mask="url(#e)" style="display:none"><path class="secondary"/><g style="mix-blend-mode:multiply"><path class="secondary"/><path class="secondary"/><path class="secondary"/><path class="secondary"/></g></g><g mask="url(#f)" style="display:none"><path class="secondary"/><g style="mix-blend-mode:multiply"><path class="secondary"/><path class="secondary"/><path class="secondary"/><path class="secondary"/></g></g><path fill="none" class="primary" style="display:none"/></g><g clip-path="url(#g)" style="display:none"><g style="display:none"><path class="secondary"/><g style="mix-blend-mode:multiply"><path class="secondary"/><path class="secondary"/><path class="secondary"/><path class="secondary"/></g></g><path class="primary" style="display:none"/><path class="primary" style="display:none"/><path fill="none" class="primary" style="display:none"/></g><g clip-path="url(#h)" style="display:block"><path fill="#FFC738" d="m46.477-41.495 127.47.05v.03a3.24 3.24 0 0 1 1.88 5.89l-103.87 74.07a4.436 4.436 0 0 0-1.62 5l38.35 122.42a3.242 3.242 0 0 1-1.097 3.663 3.24 3.24 0 0 1-3.823.067L1.187 88.935a4.393 4.393 0 0 0-5.15 0l-101.82 78.7a3.251 3.251 0 0 1-5-3.64l38.72-121.73a4.4 4.4 0 0 0-1.62-4.94l-102.18-73.68a3.252 3.252 0 0 1-.006-5.255 3.249 3.249 0 0 1 1.906-.625l125.68-.04a4.424 4.424 0 0 0 4.19-3l39.82-122.8a3.17 3.17 0 0 1 3.07-2.21 3.18 3.18 0 0 1 3.08 2.2l40.41 123.59a4.444 4.444 0 0 0 4.19 3z" class="secondary" style="display:block" transform="translate(214.963 215.005)"/><g fill="#FFC738" opacity=".5" style="mix-blend-mode:multiply;display:block"><path d="M141.37 252.329 39.2 178.649a3.171 3.171 0 0 1-1.2-3.65l177 53.53-109.55 154.08a3.139 3.139 0 0 1-1.18-3.61l38.72-121.73a4.364 4.364 0 0 0-1.62-4.94z" class="secondary" opacity="1"/><path d="M210.769 46.937a3.187 3.187 0 0 1 1.33-1.71 3.41 3.41 0 0 1 1.75-.5l1.15 183.81-45.86-56.46a4.384 4.384 0 0 0 1.86-2.34l39.77-122.8zm108.106 337.738-102.58-80.77a4.28 4.28 0 0 0-2.52-.82l1.24-74.56 107.66 156.08a3.181 3.181 0 0 1-3.8.07z" class="secondary" opacity="1"/><path d="m214.945 228.505 177.09-52.71a3.175 3.175 0 0 1-1.25 3.63l-103.88 74.07a4.507 4.507 0 0 0-1.59 2.13l-70.37-27.12z" class="secondary" opacity="1"/></g><path fill="none" stroke="#121331" stroke-linecap="round" stroke-linejoin="round" stroke-width="7" d="m261.44 173.51 127.47.05v.03a3.24 3.24 0 0 1 1.88 5.89l-103.87 74.07a4.436 4.436 0 0 0-1.62 5l38.35 122.42a3.242 3.242 0 0 1-1.097 3.663 3.24 3.24 0 0 1-3.823.067l-102.58-80.76a4.393 4.393 0 0 0-5.15 0l-101.82 78.7a3.251 3.251 0 0 1-5-3.64l38.72-121.73a4.4 4.4 0 0 0-1.62-4.94L39.1 178.65a3.252 3.252 0 0 1-.006-5.255A3.249 3.249 0 0 1 41 172.77l125.68-.04a4.424 4.424 0 0 0 4.19-3l39.82-122.8a3.17 3.17 0 0 1 3.07-2.21 3.18 3.18 0 0 1 3.08 2.2l40.41 123.59a4.444 4.444 0 0 0 4.19 3z" class="primary" style="display:block"/></g><g clip-path="url(#i)" style="display:none"><path class="secondary" style="display:none"/><g style="mix-blend-mode:multiply;display:none"><path class="secondary"/><path class="secondary"/><path class="secondary"/><path class="secondary"/></g><path fill="none" class="primary" style="display:none"/></g></g></svg>